<svg xmlns="http://www.w3.org/2000/svg" viewBox="0 0 64 64" fill="none">
  <path fill-rule="evenodd" clip-rule="evenodd"
    d="M32 4C16.536 4 4 16.536 4 32C4 44.424 11.864 55.016 22.888 58.664C24.288 58.92 24.8 58.072 24.8 57.352C24.8 56.712 24.776 54.6 24.776 52.36C18 53.672 16.24 50.808 15.72 49.312C15.424 48.552 14.08 46.2 12.92 45.56C11.96 45.08 10.56 43.768 12.888 43.736C15.08 43.704 16.648 45.72 17.12 46.504C19.64 50.744 23.704 49.544 24.92 48.84C25.16 47.08 25.864 45.864 26.64 45.176C20.84 44.488 14.76 42.216 14.76 32.36C14.76 29.56 15.776 27.24 17.2 25.448C16.92 24.76 16 22.12 17.48 18.568C17.48 18.568 19.8 17.848 24.8 21.208C26.68 20.64 28.68 20.36 30.68 20.36C32.68 20.36 34.68 20.64 36.56 21.208C41.56 17.816 43.88 18.568 43.88 18.568C45.36 22.12 44.44 24.76 44.16 25.448C45.584 27.24 46.6 29.528 46.6 32.36C46.6 42.248 40.488 44.488 34.688 45.176C35.68 46.04 36.528 47.72 36.528 50.36C36.528 54.12 36.488 57.16 36.488 57.352C36.488 58.072 36.992 58.944 38.408 58.664C49.416 55.016 57.288 44.392 57.288 32C57.288 16.536 44.488 4 32 4Z"
    fill="white"/>
</svg>
