<svg xmlns="http://www.w3.org/2000/svg" viewBox="0 0 64 64" fill="none">
  <circle cx="32" cy="32" r="28" fill="#00897B" opacity="0.15"/>
  <!-- Hand landmark dots -->
  <circle cx="32" cy="14" r="4" fill="#00BFA5"/>
  <circle cx="20" cy="22" r="3.5" fill="#00BFA5" opacity="0.8"/>
  <circle cx="44" cy="22" r="3.5" fill="#00BFA5" opacity="0.8"/>
  <circle cx="16" cy="34" r="3" fill="#00BFA5" opacity="0.7"/>
  <circle cx="32" cy="30" r="4.5" fill="#00E5FF"/>
  <circle cx="48" cy="34" r="3" fill="#00BFA5" opacity="0.7"/>
  <circle cx="22" cy="46" r="3" fill="#00BFA5" opacity="0.6"/>
  <circle cx="42" cy="46" r="3" fill="#00BFA5" opacity="0.6"/>
  <circle cx="32" cy="50" r="3.5" fill="#00BFA5" opacity="0.8"/>
  <!-- Connections -->
  <line x1="32" y1="14" x2="20" y2="22" stroke="#00BFA5" stroke-width="1.2" opacity="0.5"/>
  <line x1="32" y1="14" x2="44" y2="22" stroke="#00BFA5" stroke-width="1.2" opacity="0.5"/>
  <line x1="20" y1="22" x2="16" y2="34" stroke="#00BFA5" stroke-width="1.2" opacity="0.5"/>
  <line x1="44" y1="22" x2="48" y2="34" stroke="#00BFA5" stroke-width="1.2" opacity="0.5"/>
  <line x1="32" y1="30" x2="22" y2="46" stroke="#00BFA5" stroke-width="1.2" opacity="0.5"/>
  <line x1="32" y1="30" x2="42" y2="46" stroke="#00BFA5" stroke-width="1.2" opacity="0.5"/>
  <line x1="32" y1="30" x2="32" y2="50" stroke="#00E5FF" stroke-width="1.5" opacity="0.7"/>
  <line x1="16" y1="34" x2="32" y2="30" stroke="#00BFA5" stroke-width="1" opacity="0.4"/>
  <line x1="48" y1="34" x2="32" y2="30" stroke="#00BFA5" stroke-width="1" opacity="0.4"/>
</svg>
